<svg xmlns="http://www.w3.org/2000/svg" width="24" height="24" fill="none" viewBox="0 0 24 24">
    <path fill="#fff" fill-rule="evenodd" d="M13.414 12l4.293-4.293c.391-.391.391-1.023 0-1.414s-1.023-.391-1.414 0L12 10.586 7.707 6.293c-.391-.391-1.023-.391-1.414 0s-.391 1.023 0 1.414L10.586 12l-4.293 4.293c-.391.391-.391 1.023 0 1.414.195.195.451.293.707.293.256 0 .512-.098.707-.293L12 13.414l4.293 4.293c.195.195.451.293.707.293.256 0 .512-.098.707-.293.391-.391.391-1.023 0-1.414L13.414 12z" clip-rule="evenodd"/>
    <mask id="87r3f0a22a" width="14" height="13" x="5" y="5" maskUnits="userSpaceOnUse">
        <path fill="#fff" fill-rule="evenodd" d="M13.414 12l4.293-4.293c.391-.391.391-1.023 0-1.414s-1.023-.391-1.414 0L12 10.586 7.707 6.293c-.391-.391-1.023-.391-1.414 0s-.391 1.023 0 1.414L10.586 12l-4.293 4.293c-.391.391-.391 1.023 0 1.414.195.195.451.293.707.293.256 0 .512-.098.707-.293L12 13.414l4.293 4.293c.195.195.451.293.707.293.256 0 .512-.098.707-.293.391-.391.391-1.023 0-1.414L13.414 12z" clip-rule="evenodd"/>
    </mask>
</svg>
