<svg xmlns="http://www.w3.org/2000/svg" width="64" height="64" fill="none" viewBox="0 0 64 64">
    <path fill="#C7C7C7" fill-rule="evenodd" d="M32.063 38.429c-1.897 0-3.44-1.525-3.44-3.398 0-1.874 1.543-3.398 3.44-3.398s3.44 1.524 3.44 3.398c0 1.873-1.543 3.398-3.44 3.398m0-11.327c-4.428 0-8.03 3.557-8.03 7.929s3.602 7.929 8.03 7.929c4.426 0 8.027-3.557 8.027-7.93 0-4.371-3.601-7.928-8.028-7.928m18.35 16.99c0 1.249-1.027 2.266-2.294 2.266H16.006c-1.266 0-2.294-1.017-2.294-2.266V25.97c0-1.248 1.028-2.266 2.294-2.266h32.112c1.267 0 2.294 1.018 2.294 2.266v18.123zM27.475 15.775c0-.626.516-1.133 1.147-1.133h6.881c.631 0 1.147.507 1.147 1.133v3.398h-9.175v-3.398zm20.644 3.398h-6.882v-3.398c0-3.122-2.57-5.664-5.734-5.664h-6.881c-3.163 0-5.735 2.542-5.735 5.664v3.398h-6.88c-3.795 0-6.882 3.05-6.882 6.796v18.124c0 3.747 3.087 6.796 6.881 6.796H48.12c3.794 0 6.881-3.05 6.881-6.796V25.969c0-3.747-3.087-6.796-6.881-6.796z" clip-rule="evenodd"/>
    <mask id="k3ca9xlm1a" width="46" height="41" x="9" y="10" maskUnits="userSpaceOnUse">
        <path fill="#fff" fill-rule="evenodd" d="M32.063 38.429c-1.897 0-3.44-1.525-3.44-3.398 0-1.874 1.543-3.398 3.44-3.398s3.44 1.524 3.44 3.398c0 1.873-1.543 3.398-3.44 3.398m0-11.327c-4.428 0-8.03 3.557-8.03 7.929s3.602 7.929 8.03 7.929c4.426 0 8.027-3.557 8.027-7.93 0-4.371-3.601-7.928-8.028-7.928m18.35 16.99c0 1.249-1.027 2.266-2.294 2.266H16.006c-1.266 0-2.294-1.017-2.294-2.266V25.97c0-1.248 1.028-2.266 2.294-2.266h32.112c1.267 0 2.294 1.018 2.294 2.266v18.123zM27.475 15.775c0-.626.516-1.133 1.147-1.133h6.881c.631 0 1.147.507 1.147 1.133v3.398h-9.175v-3.398zm20.644 3.398h-6.882v-3.398c0-3.122-2.57-5.664-5.734-5.664h-6.881c-3.163 0-5.735 2.542-5.735 5.664v3.398h-6.88c-3.795 0-6.882 3.05-6.882 6.796v18.124c0 3.747 3.087 6.796 6.881 6.796H48.12c3.794 0 6.881-3.05 6.881-6.796V25.969c0-3.747-3.087-6.796-6.881-6.796z" clip-rule="evenodd"/>
    </mask>
</svg>
