<svg xmlns="http://www.w3.org/2000/svg" width="16" height="16" fill="none" viewBox="0 0 16 16">
    <path fill="#2B2B2B" d="M11.564 10.8l-.39-.314c-.095.118-.131.273-.098.421l.488-.108zm-1.496 1.253l.15-.477c-.13-.04-.27-.027-.39.039l.24.438zm1.908.601l-.15.477c.17.054.356.012.487-.108.132-.121.19-.303.15-.477l-.487.108zm.19-4.987c0 1.067-.37 2.047-.992 2.819l.78.627c.758-.943 1.213-2.142 1.213-3.446h-1zm-4.5-4.5c2.486 0 4.5 2.014 4.5 4.5h1c0-3.038-2.462-5.5-5.5-5.5v1zm-4.5 4.5c0-2.486 2.015-4.5 4.5-4.5v-1c-3.037 0-5.5 2.462-5.5 5.5h1zm4.5 4.5c-2.485 0-4.5-2.015-4.5-4.5h-1c0 3.037 2.463 5.5 5.5 5.5v-1zm2.162-.552c-.641.351-1.377.552-2.161.552v1c.956 0 1.857-.245 2.642-.675l-.481-.877zm2.298.562l-1.907-.6-.301.953 1.907.601.3-.954zm-1.05-1.27l.411 1.855.977-.216-.412-1.855-.976.216z"/>
    <circle cx="5.444" cy="7.667" r=".556" fill="#2B2B2B"/>
    <circle cx="7.667" cy="7.667" r=".556" fill="#2B2B2B"/>
    <circle cx="9.889" cy="7.667" r=".556" fill="#2B2B2B"/>
</svg>
