<svg xmlns="http://www.w3.org/2000/svg" width="40" height="40" fill="none" viewBox="0 0 40 40">
    <path fill="#fff" fill-rule="evenodd" d="M11.936 25.056l3.875-.353 7.288-7.294-3.509-3.51-7.31 7.31-.344 3.847zm9.398-12.9l3.507 3.507 2.534-2.537-3.506-3.507-2.535 2.537zM9.58 27.414c-.273-.273-.41-.653-.376-1.038l.494-5.428c.054-.594.317-1.155.741-1.58L22.147 7.662c.914-.918 2.57-.872 3.535.09l3.563 3.563.002.001c.995.997 1.036 2.582.088 3.532l-11.709 11.71c-.423.423-.984.685-1.58.74l-5.427.493c-.04.003-.078.004-.118.004-.343 0-.675-.135-.92-.38zm20.442 4.284c0 .716-.585 1.302-1.301 1.302H10.5c-.715 0-1.302-.586-1.302-1.302 0-.714.587-1.3 1.302-1.3h18.22c.716 0 1.301.586 1.301 1.3z" clip-rule="evenodd"/>
</svg>
