<svg xmlns="http://www.w3.org/2000/svg" width="24" height="24" fill="none" viewBox="0 0 24 24">
    <path fill="#000" d="M17.346 16.199l-.584-.47c-.143.177-.198.41-.148.632l.732-.162zm-2.244 1.88l.226-.715c-.195-.061-.407-.04-.586.058l.36.658zm2.861.902l-.225.715c.256.08.535.019.732-.162.198-.181.284-.454.226-.715l-.733.162zm.287-7.481c0 1.602-.557 3.071-1.488 4.229l1.168.94c1.138-1.414 1.82-3.213 1.82-5.169h-1.5zM11.5 4.75c3.728 0 6.75 3.022 6.75 6.75h1.5c0-4.556-3.694-8.25-8.25-8.25v1.5zM4.75 11.5c0-3.728 3.022-6.75 6.75-6.75v-1.5c-4.556 0-8.25 3.694-8.25 8.25h1.5zm6.75 6.75c-3.728 0-6.75-3.022-6.75-6.75h-1.5c0 4.556 3.694 8.25 8.25 8.25v-1.5zm3.242-.828c-.962.528-2.066.828-3.242.828v1.5c1.435 0 2.786-.367 3.963-1.013l-.721-1.315zm3.447.844l-2.861-.902-.45 1.431 2.86.901.45-1.43zm-1.575-1.905l.617 2.783 1.464-.325-.617-2.783-1.464.325z"/>
    <circle cx="8.167" cy="11.5" r=".833" fill="#000"/>
    <circle cx="11.5" cy="11.5" r=".833" fill="#000"/>
    <circle cx="14.833" cy="11.5" r=".833" fill="#000"/>
</svg>
