
<svg xmlns="http://www.w3.org/2000/svg" width="24" height="24" fill="none" viewBox="0 0 24 24">
    <path fill="#FFE812" d="M0 12C0 5.373 5.373 0 12 0s12 5.373 12 12-5.373 12-12 12S0 18.627 0 12z"/>
    <path fill="#381F1F" d="M12 5.5c-4.418 0-8 2.824-8 6.308 0 2.252 1.497 4.228 3.75 5.344-.123.423-.788 2.719-.814 2.9 0 0-.016.135.072.186.088.052.19.012.19.012.252-.035 2.92-1.909 3.381-2.234.461.066.936.1 1.421.1 4.418 0 8-2.825 8-6.308C20 8.324 16.418 5.5 12 5.5z"/>
    <path fill="#FFE812" fill-rule="evenodd" d="M7.577 14.01c-.255 0-.462-.198-.462-.441v-2.742h-.72c-.25 0-.453-.203-.453-.452 0-.25.203-.452.453-.452H8.76c.25 0 .452.203.452.452 0 .25-.203.452-.452.452h-.72v2.742c0 .243-.208.44-.462.44zm4.047-.006c-.193 0-.34-.079-.384-.204l-.229-.599H9.604l-.229.6c-.044.125-.191.203-.384.203-.1 0-.2-.022-.293-.064-.127-.059-.25-.22-.11-.655l1.105-2.906c.077-.221.314-.449.614-.456.302.007.538.235.616.456l1.103 2.905c.14.436.019.598-.109.656-.092.042-.192.064-.293.064zm-1.316-2.93l.46 1.31h-.921l.46-1.31zm2.461 2.868c-.244 0-.442-.19-.442-.423v-3.134c0-.255.211-.462.471-.462s.471.207.471.462v2.711h.98c.245 0 .443.19.443.423 0 .233-.198.423-.442.423h-1.48zm2.103-.4c0 .255.207.462.461.462.123 0 .24-.05.327-.136.086-.086.135-.204.135-.326v-1.007l.16-.16 1.083 1.434c.042.057.098.104.162.135.064.032.135.049.206.048.1 0 .198-.032.278-.093.048-.036.09-.082.12-.134.03-.052.05-.11.059-.17.009-.06.005-.121-.01-.18s-.042-.114-.079-.162l-1.136-1.505 1.052-1.052c.072-.072.109-.172.102-.28-.007-.109-.055-.213-.136-.293-.086-.087-.202-.137-.317-.137-.1 0-.19.037-.256.103l-1.288 1.288v-.992c0-.255-.207-.462-.462-.462-.254 0-.461.207-.461.462v3.157z" clip-rule="evenodd"/>
</svg>
