<svg xmlns="http://www.w3.org/2000/svg" width="64" height="64" fill="none" viewBox="0 0 64 64">
    <path fill="#fff" d="M31.593 61c-5.127 0-10.084-1.397-14.386-4.054-2.123-1.307-2.767-4.088-1.457-6.206 1.321-2.117 4.1-2.759 6.222-1.453 2.97 1.836 6.447 2.77 10.027 2.703 3.207-.056 6.312-.934 8.988-2.522 2.145-1.273 4.912-.564 6.188 1.576 1.276 2.14.565 4.9-1.58 6.172-4.02 2.387-8.673 3.694-13.427 3.784h-.575zM52.12 7.505C52.12 5.015 50.1 3 47.605 3c-2.495 0-4.517 2.016-4.517 4.505v.056c-3.274-2.218-7.226-3.514-11.472-3.514-11.303 0-20.494 9.168-20.494 20.441 0 11.274 9.191 20.44 20.494 20.44 11.224 0 20.359-9.043 20.483-20.215 0-.078.023-.146.023-.225V7.505zM31.616 35.919c-6.323 0-11.46-5.124-11.46-11.43 0-6.308 5.137-11.432 11.46-11.432 6.323 0 11.461 5.124 11.461 11.431 0 6.307-5.138 11.431-11.46 11.431z"/>
    <path fill="#B8FBB4" d="M26.252 27.304c-1.559 0-2.823-1.262-2.823-2.816 0-4.505 3.67-8.165 8.186-8.165 1.558 0 2.823 1.261 2.823 2.816 0 1.554-1.265 2.815-2.823 2.815-1.4 0-2.54 1.138-2.54 2.534 0 1.554-1.265 2.816-2.823 2.816z"/>
</svg>
