<svg xmlns="http://www.w3.org/2000/svg" width="40" height="40" fill="none" viewBox="0 0 40 40">
    <path fill="#3943F4" d="M20.485 34.785c-2.625 0-5.164-.717-7.368-2.082-1.087-.67-1.417-2.1-.746-3.187.677-1.087 2.1-1.417 3.187-.746 1.521.943 3.302 1.423 5.136 1.388 1.642-.029 3.233-.48 4.603-1.295 1.1-.654 2.516-.29 3.17.81.653 1.098.289 2.515-.81 3.169-2.059 1.226-4.442 1.897-6.877 1.943h-.295zM31 7.313C31 6.035 29.965 5 28.687 5c-1.279 0-2.314 1.035-2.314 2.313v.03c-1.677-1.14-3.701-1.805-5.876-1.805C14.707 5.538 10 10.246 10 16.035c0 5.79 4.708 10.497 10.497 10.497 5.749 0 10.428-4.644 10.491-10.381 0-.04.012-.075.012-.116V7.313zM20.497 21.905c-3.239 0-5.87-2.631-5.87-5.87 0-3.239 2.631-5.87 5.87-5.87 3.239 0 5.87 2.631 5.87 5.87 0 3.239-2.631 5.87-5.87 5.87z"/>
    <path fill="#B8FBB4" d="M17.75 17.48c-.798 0-1.446-.647-1.446-1.445 0-2.313 1.88-4.193 4.193-4.193.798 0 1.446.648 1.446 1.446 0 .798-.648 1.446-1.446 1.446-.717 0-1.301.584-1.301 1.301 0 .798-.648 1.446-1.446 1.446z"/>
</svg>
