<svg xmlns="http://www.w3.org/2000/svg" width="120" height="120" fill="none" viewBox="0 0 120 120">
    <path stroke="#373CFF" stroke-opacity=".6" d="M73.5 60c0 7.456-6.044 13.5-13.5 13.5S46.5 67.456 46.5 60 52.544 46.5 60 46.5 73.5 52.544 73.5 60z"/>
    <path stroke="#373CFF" stroke-opacity=".4" d="M85.5 60c0 14.083-11.417 25.5-25.5 25.5S34.5 74.083 34.5 60 45.917 34.5 60 34.5 85.5 45.917 85.5 60z"/>
    <circle cx="60" cy="60" r="39.5" stroke="#373CFF" stroke-opacity=".3"/>
    <path stroke="#373CFF" stroke-opacity=".15" d="M119.5 60c0 32.86-26.639 59.5-59.5 59.5C27.14 119.5.5 92.86.5 60S27.14.5 60 .5c32.861 0 59.5 26.64 59.5 59.5z"/>
    <path fill="#212B36" fill-rule="evenodd" d="M50 47.5c0-5.81 4.455-10.5 9.973-10.5 5.519 0 9.974 4.69 9.974 10.5 0 7-9.974 17.5-9.974 17.5S50 54.5 50 47.5zm16.622 0c0-3.85-2.958-7-6.648-7-3.657 0-6.65 3.15-6.65 7 0 3.885 2.993 7 6.65 7 3.69 0 6.648-3.115 6.648-7z" clip-rule="evenodd"/>
    <mask id="k4owagiuca" width="20" height="28" x="50" y="37" maskUnits="userSpaceOnUse">
        <path fill="#fff" fill-rule="evenodd" d="M50 47.5C50 41.69 54.467 37 60 37s10 4.69 10 10.5c0 7-10 17.5-10 17.5S50 54.5 50 47.5zm14.483 0c0-2.475-2.003-4.5-4.5-4.5-2.475 0-4.5 2.025-4.5 4.5 0 2.498 2.025 4.5 4.5 4.5 2.497 0 4.5-2.002 4.5-4.5z" clip-rule="evenodd"/>
    </mask>
    <g mask="url(#k4owagiuca)">
        <rect width="29.92" height="31.5" x="45.013" y="35.25" fill="#373CFF" rx="4"/>
    </g>
</svg>
