<svg xmlns="http://www.w3.org/2000/svg" width="21" height="28" fill="none" viewBox="0 0 21 28">
    <path fill="#212B36" fill-rule="evenodd" d="M0 10.5C0 4.69 4.467 0 10 0s10 4.69 10 10.5c0 7-10 17.5-10 17.5S0 17.5 0 10.5zm16.667 0c0-3.85-2.967-7-6.667-7-3.667 0-6.667 3.15-6.667 7 0 3.885 3 7 6.667 7 3.7 0 6.667-3.115 6.667-7z" clip-rule="evenodd"/>
    <mask id="kuoao6kxza" width="21" height="28" x="0" y="0" maskUnits="userSpaceOnUse">
        <path fill="#fff" fill-rule="evenodd" d="M0 10.5C0 4.69 4.479 0 10.027 0c5.548 0 10.027 4.69 10.027 10.5 0 7-10.027 17.5-10.027 17.5S0 17.5 0 10.5zm14.521 0c0-2.475-2.008-4.5-4.512-4.5-2.481 0-4.512 2.025-4.512 4.5 0 2.498 2.03 4.5 4.512 4.5 2.505 0 4.512-2.002 4.512-4.5z" clip-rule="evenodd"/>
    </mask>
    <g mask="url(#kuoao6kxza)">
        <rect width="30" height="31.5" x="-5" y="-1.75" fill="#373CFF" rx="4"/>
    </g>
</svg>
